<?xml version="1.0" standalone="no"?>
<!DOCTYPE svg PUBLIC "-//W3C//DTD SVG 20010904//EN"
 "http://www.w3.org/TR/2001/REC-SVG-20010904/DTD/svg10.dtd">
<svg version="1.0" xmlns="http://www.w3.org/2000/svg"
 width="700.000000pt" height="700.000000pt" viewBox="0 0 700.000000 700.000000"
 preserveAspectRatio="xMidYMid meet">
<metadata>
Created by potrace 1.11, written by Peter Selinger 2001-2013
</metadata>
<g transform="translate(0.000000,700.000000) scale(0.100000,-0.100000)"
fill="#000000" stroke="none">
<path d="M26 6971 c-2 -3 -3 -1567 -2 -3476 l1 -3470 3460 -1 c1903 -1 3467 0
3476 2 14 4 15 340 15 3477 l-1 3472 -3473 1 c-1910 0 -3474 -2 -3476 -5z
m6764 -3471 l0 -3290 -3290 0 -3290 0 0 3290 0 3290 3290 0 3290 0 0 -3290z"/>
<path d="M959 5877 c-52 -26 -73 -60 -56 -89 23 -36 138 -80 272 -102 79 -13
166 -25 225 -31 36 -4 76 -8 90 -10 14 -2 54 -7 90 -10 105 -9 120 -14 121
-38 0 -12 2 -29 4 -37 1 -8 6 -57 9 -108 4 -51 9 -100 11 -110 3 -18 12 -177
21 -367 5 -107 18 -2028 18 -2590 -1 -344 -10 -610 -28 -785 -3 -25 -8 -83
-12 -130 -10 -124 -8 -118 -40 -124 -17 -3 -121 -14 -209 -21 -81 -7 -319 -36
-420 -51 -98 -15 -166 -65 -151 -111 16 -50 120 -67 301 -50 130 13 275 22
515 34 306 14 1211 7 1485 -12 28 -2 91 -6 140 -9 50 -3 131 -9 180 -13 140
-11 177 -9 218 11 47 23 62 48 46 77 -12 23 -76 54 -129 63 -19 3 -44 7 -55
10 -86 17 -246 35 -475 51 -25 2 -90 6 -145 10 -55 4 -115 8 -134 9 -18 1 -37
9 -41 17 -7 13 -19 81 -25 154 -21 237 -23 314 -31 1124 l-7 634 104 -7 c57
-3 127 -8 154 -11 296 -26 924 -26 1155 0 213 24 441 62 555 91 33 9 70 18 81
20 41 8 261 82 350 119 310 127 585 324 736 527 154 206 219 402 218 658 0 92
-4 137 -15 190 -3 14 -7 36 -10 49 -8 42 -36 124 -66 188 -125 275 -423 512
-800 637 -91 30 -248 70 -339 86 -36 7 -74 14 -85 16 -26 5 -87 13 -154 20
-30 3 -62 7 -71 9 -112 22 -709 22 -1190 0 -47 -2 -161 -6 -255 -10 -93 -3
-235 -8 -315 -11 -490 -19 -860 -19 -1155 0 -49 4 -127 9 -173 12 -46 3 -98 7
-115 9 -18 2 -59 6 -92 10 -33 4 -75 8 -93 11 -121 15 -169 13 -213 -9z m2861
-180 c14 -3 46 -8 70 -11 25 -3 56 -8 70 -11 14 -3 39 -8 55 -11 221 -39 456
-140 630 -270 290 -216 446 -529 449 -899 3 -485 -248 -819 -740 -983 -95 -32
-266 -70 -349 -78 -27 -3 -56 -7 -63 -9 -21 -7 -267 -19 -387 -18 -112 0 -354
11 -397 18 -13 2 -70 6 -128 10 -58 3 -118 8 -135 10 -16 2 -57 7 -90 10 -32
4 -62 8 -65 10 -15 9 -2 1481 15 1665 6 59 10 117 21 275 4 55 8 114 10 130 1
17 3 46 3 66 l1 35 83 14 c45 7 91 14 102 16 11 2 43 7 70 10 28 3 61 7 75 10
14 2 63 7 110 10 47 3 87 8 89 10 5 5 468 -4 501 -9z"/>
</g>
</svg>
